<?xml version="1.0" encoding="UTF-8"?><svg id="a" xmlns="http://www.w3.org/2000/svg" viewBox="0 0 1000 1000"><defs><style>.b{fill:#e62a25;}.c{fill:#fefefe;}.d{fill:#0f0402;}</style></defs><path class="d" d="M746.58,383.98c-1.74-16.99-4.34-33.82-8.14-50.47-6.66-29.18-16.69-57.07-31.81-82.99-16.91-28.99-38.97-53.16-67.24-71.47-32.38-20.97-68.28-31.43-106.33-35.3-17.02-1.73-34.08-1.9-51.16-1.08-21.8,1.05-43.24,4.32-64.2,10.47-46.56,13.64-84.39,39.75-112.7,79.31-19.57,27.34-32.34,57.79-40.84,90.16-5.72,21.8-9.26,43.97-11.28,66.41-1.37,15.17-1.95,30.36-1.92,45.58,.04,21.96,2.26,43.75,5.5,65.45,3.38,22.62,7.93,44.99,13.51,67.16,11.72,46.57,27.33,91.76,48.33,135,14.55,29.96,31.5,58.45,52.76,84.21,15.9,19.27,33.77,36.37,55.15,49.54,20.3,12.52,42.2,20.24,66.12,21.6,25.22,1.43,48.94-4.14,71.25-15.83,23.93-12.53,43.7-30.15,61.21-50.47,21.62-25.09,38.86-53.07,53.65-82.6,24.6-49.11,42.09-100.77,54.6-154.17,5.79-24.74,10.27-49.71,13.14-74.97,1.85-16.32,2.81-32.68,2.87-46.51-.28-18.1-.89-33.59-2.47-49.04Z"/><g><path class="c" d="M364.55,524.95c-25.39-26.4-48.72-54.48-69.05-85.41-.2,.95-.37,1.52-.45,2.1-1.09,8.21-1.76,16.45-1.99,24.73-.71,25.62,2.54,50.67,10.91,74.96,6.32,18.35,15.21,35.24,28.72,49.4,15.62,16.38,34.58,25.37,57.41,25.06,20.06-.27,38.24-7.19,55.93-16.86-28.81-23.17-56.07-47.57-81.48-73.99Z"/><path class="c" d="M707.11,456.25c-.4-5.46-.9-10.92-1.86-16.64-.46,.61-.74,.94-.98,1.29-21.19,32.08-45.87,61.31-72.72,88.76-23.65,24.17-48.85,46.64-75.18,67.85-1.45,1.17-1.57,1.61,.2,2.55,14.18,7.44,28.9,13.22,44.95,15.13,15.5,1.84,30.28-.37,44.2-7.55,15.12-7.8,26.48-19.65,35.47-33.85,16.32-25.77,23.56-54.38,25.91-84.45,.86-11.02,.8-22.05,0-33.08Z"/></g><g><path class="b" d="M433.81,251.41c.2,1.24,.69,2.14,1.82,2.86,23.87,15.36,49.85,21.62,78.09,18.38,17.91-2.06,34.36-8.12,49.56-17.76,1.82-1.16,2.58-2.5,2.91-4.57,2.24-14.27,4.61-28.52,6.95-42.78,2.42-14.77,4.84-29.54,7.29-44.3,.28-1.71-.15-1.86-1.68-1.23-28.81,11.8-58.7,17.08-89.85,15.37-15.15-.83-29.99-3.28-44.59-7.3-8.39-2.31-16.55-5.28-25.2-8.84,.73,4.36,1.39,8.23,2.02,12.1,4.23,26.02,8.46,52.04,12.68,78.06Z"/><path class="b" d="M435.42,260.42c.12,.85,.21,1.65,.34,2.45,2.76,16.9,5.52,33.81,8.28,50.71,2.42,14.85,4.85,29.69,7.25,44.54,.24,1.49,.89,2.46,2.24,3.29,11.88,7.27,24.71,11.62,38.6,12.82,19.65,1.69,37.81-2.81,54.56-13.16,.93-.58,1.5-1.21,1.68-2.41,1.23-7.87,2.59-15.72,3.88-23.58,3.24-19.77,6.47-39.54,9.7-59.31,.84-5.13,1.67-10.25,2.51-15.38-43.08,24.31-85.98,24.33-129.05,.03Z"/><path class="b" d="M556.53,744.57c-.7-2.3-1.89-3.58-3.96-4.61-19.43-9.69-39.91-13.86-61.61-12.22-15.81,1.2-30.66,5.56-44.75,12.75-1.45,.74-2.2,1.73-2.68,3.27-6.84,22.28-13.73,44.54-20.61,66.8-.93,3.02-1.85,6.05-2.86,9.33,53.37-16.28,106.36-16.27,159.49-.06-.03-.49,0-.65-.05-.78-7.68-24.82-15.4-49.63-22.99-74.49Z"/><path class="b" d="M334.71,310.52c.59,1.19,1.4,1.61,2.55,1.76,12.99,1.69,25.99,2.24,38.94-.33,16.55-3.28,30.15-11.3,39.91-25.3,6.22-8.91,10.1-18.86,12.74-29.34,.41-1.63,.58-3.21,.3-4.85-1.15-6.83-2.33-13.65-3.44-20.48-3.65-22.33-7.28-44.66-10.94-67.18-.38,.2-.55,.23-.62,.33-.32,.5-.62,1.02-.93,1.53-14.93,24.46-34.18,44.68-58.7,59.7-15.35,9.4-31.8,16.21-49.16,20.89-1.13,.3-2.32,.31-1.37,2.2,10.3,20.33,20.52,40.69,30.71,61.08Z"/><path class="b" d="M570.77,256.62c1.11,4.25,2.33,8.46,3.89,12.58,9.23,24.45,26.34,39.31,52.45,43.34,11.83,1.82,23.62,1.22,35.42-.24,1.43-.18,2.14-.91,2.77-2.16,9.95-19.92,19.96-39.82,29.95-59.73q1.3-2.59-1.41-3.32c-43.74-12.02-78.51-36.52-103.51-74.57-1.66-2.53-3.27-5.11-5.18-8.1-1.15,6.93-2.23,13.31-3.28,19.7-3.41,20.79-6.84,41.59-10.16,62.39-.53,3.33-1.85,6.65-.94,10.11Z"/><path class="b" d="M613.5,413.39c13.77-27.58,27.62-55.12,41.45-82.68,2.19-4.37,4.37-8.74,6.64-13.26-.8,0-1.32-.06-1.83,0-11.97,1.55-23.91,1.66-35.82-.53-19.94-3.65-35.7-13.58-46.49-30.97-3.71-5.97-6.48-12.36-8.86-19.25-.23,.78-.44,1.26-.52,1.77-1.83,11.17-3.64,22.34-5.47,33.5-2.63,16.09-5.31,32.17-7.9,48.26-.93,5.83-2.65,11.6-.56,17.61,1.46,4.21,2.45,8.59,4.12,12.74,3.8,9.47,8.92,18.04,16.97,24.55,9.99,8.08,21.65,10.81,34.23,10.75,2.06-.01,3.12-.64,4.05-2.5Z"/><path class="b" d="M431.4,266.6c-1.43,3.56-2.57,6.63-3.89,9.61-5.87,13.2-14.45,24.14-26.97,31.65-15.14,9.07-31.79,11.33-49.06,10.57-4.3-.19-8.6-.63-13.21-.99,.51,1.06,.87,1.87,1.27,2.66,3.34,6.66,6.69,13.31,10.03,19.96,12.37,24.62,24.75,49.24,37.07,73.89,.71,1.41,1.49,1.97,3.06,1.91,3.05-.12,6.1-.08,9.15-.42,14.31-1.61,25.92-7.9,34.42-19.65,6.77-9.35,10.43-20.01,12.97-31.12,.4-1.75,.73-3.47,.42-5.3-1.13-6.68-2.2-13.37-3.3-20.06-3.21-19.54-6.43-39.08-9.64-58.62-.75-4.54-1.49-9.08-2.32-14.1Z"/><path class="b" d="M552.98,734.58c.33-.71,.07-1.11-.06-1.52-10.06-32.57-20.13-65.14-30.17-97.72-.34-1.09-.95-1.78-1.91-2.31-13.48-7.44-27.05-7.63-40.78-.64-1.89,.97-2.83,2.32-3.44,4.31-9.66,31.45-19.4,62.87-29.1,94.3-.34,1.11-.88,2.18-.82,3.64,16.93-8.1,34.55-12.28,53.17-12.28,18.63,0,36.26,4.17,53.11,12.22Z"/><path class="b" d="M547.02,366.94c-31.46,16.89-62.63,16.94-94.14,.11,.13,.98,.2,1.71,.32,2.43,1.41,8.59,2.83,17.18,4.24,25.78,3.07,18.73,6.15,37.46,9.18,56.2,.21,1.27,.69,2.15,1.78,2.87,5.12,3.36,10.45,6.34,16.22,8.41,5.35,1.91,10.85,3.48,16.58,3.06,11.31-.83,21.22-5.51,30.49-11.75,.86-.58,1.31-1.27,1.47-2.34,.65-4.27,1.41-8.52,2.11-12.78,3.23-19.76,6.45-39.52,9.67-59.29,.68-4.15,1.36-8.31,2.08-12.7Z"/><path class="b" d="M666.48,321.06c-5.29,20.49-8.68,41.1-5.47,62.32,2.43,16.09,8.69,30.41,19.46,42.71,1.26,1.44,1.77,1.6,2.93-.17,8.17-12.48,15.46-25.47,22.56-38.57,2.62-4.83,5.29-9.63,8.09-14.7,.32,.81,.55,1.26,.7,1.75,3.46,11.47,6.95,22.94,10.32,34.43,.55,1.88,.98,1.89,2.33,.64,3.95-3.64,7.95-7.22,12.04-10.69,1.35-1.15,1.67-1.87,.63-3.57-16.56-26.9-28.83-55.61-35.83-86.48-3.83-16.9-5.94-34.03-6.53-52.08-.73,1.34-1.19,2.11-1.59,2.92-6.72,13.37-13.53,26.7-20.12,40.14-3.43,6.99-7.52,13.67-9.51,21.37Z"/><path class="b" d="M274.68,411.41c3.93-12.98,7.79-25.74,11.82-39.02,4.49,8.18,8.7,15.8,12.87,23.45,5.56,10.21,11.49,20.21,17.85,29.95,.78,1.19,1.24,1.48,2.19,.21,1.43-1.91,3.05-3.67,4.46-5.59,11.41-15.48,15.87-33.16,16.2-52.06,.21-12.27-1.38-24.39-4.11-36.34-1.44-6.31-2.43-12.8-5.31-18.64-8.92-18.11-18.07-36.11-27.13-54.15-.35-.69-.76-1.35-1.35-2.4-.06,1.07-.09,1.66-.12,2.25-.44,10.88-1.42,21.72-3.14,32.47-4.38,27.41-12.88,53.52-25.15,78.4-4.32,8.76-9.05,17.29-14.16,25.62-.42,.69-1.3,1.35-.23,2.29,5.09,4.47,10.15,8.98,15.32,13.56Z"/><path class="b" d="M439.4,738.78c-3.59-12.08-9.23-22.93-18.97-31.28-9.55-8.19-20.87-12.12-33.16-13.72-1.58-.21-2.82-.35-4.12,1.15-11.16,12.82-22.44,25.54-33.67,38.3-.92,1.04-1.81,2.11-2.76,3.22,35.93,14.69,59.1,40.52,69.79,77.8,.23-.51,.42-.83,.52-1.17,7.43-24.04,14.86-48.07,22.29-72.11,.23-.74,.3-1.45,.08-2.19Z"/><path class="b" d="M647.14,729.64c-10.25-11.64-20.5-23.28-30.76-34.92-.58-.65-1.04-1.33-2.19-1.19-11.48,1.42-22.31,4.57-31.76,11.54-11.09,8.18-17.53,19.46-21.62,32.33-.52,1.65-.48,3.15,.03,4.79,5.49,17.63,10.94,35.27,16.4,52.91,1.95,6.31,3.89,12.63,6.04,19.61,.37-1.16,.54-1.66,.67-2.16,5.38-19.64,15.34-36.61,29.83-50.89,10.81-10.65,23.32-18.74,37.44-24.29,1.93-.76,1.79-1.29,.54-2.56-1.62-1.64-3.08-3.45-4.61-5.18Z"/><path class="b" d="M634.78,488.64c4.97-5.95,10.16-11.72,15.12-17.67,9.98-11.97,19.37-24.4,28.24-37.22,.96-1.39,.88-2.2-.26-3.37-1.66-1.7-3.18-3.56-4.63-5.45-15.95-20.85-19.86-44.77-17.85-70.2,.48-6.04,1.47-12.01,2.01-18.13-.47,.95-.93,1.91-1.4,2.86-12.61,25.09-25.22,50.17-37.82,75.26-.93,1.86-2.05,3.7-2.59,5.68-3.47,12.72-5.83,25.59-4.19,38.85,1.63,13.27,7.76,23.61,19.87,29.99,1.49,.78,2.34,.79,3.5-.59Z"/><path class="b" d="M322.69,429.5c-1.37,1.52-1.42,2.45-.28,4.11,13.29,19.22,27.85,37.43,43.35,54.9,.98,1.1,1.71,1.23,2.99,.54,10.34-5.54,16.45-14.18,18.84-25.55,1.99-9.49,1.48-19-.21-28.44-1.23-6.87-2.35-13.76-5.59-20.13-9.25-18.19-18.35-36.45-27.51-54.68-3.97-7.91-7.96-15.81-11.93-23.72l-.37,.02c.05,.51,.06,1.03,.16,1.54,2.86,15.04,3.75,30.17,1.58,45.36-2.48,17.38-9.19,32.92-21.02,46.04Z"/><path class="b" d="M448.85,374.41c-8.54,28-25.81,46.22-58.63,46.44,.45,.96,.78,1.7,1.14,2.41,7.85,15.63,15.71,31.26,23.56,46.9,3.51,6.99,7,13.98,10.53,20.97,.37,.74,.51,1.72,1.82,1.54,6.26-.85,12.27-2.4,17.68-5.82,9.33-5.91,13.81-14.91,16.05-25.31,.67-3.13,1.35-6.27,.82-9.52-3.88-23.65-7.74-47.31-11.65-70.96-.35-2.11-.44-4.29-1.31-6.65Z"/><path class="b" d="M609.65,420.78c-31.97,.08-49.84-17.41-58.83-46.79-.77,4.62-1.44,8.55-2.09,12.48-3.07,18.73-6.21,37.44-9.16,56.19-.92,5.82-2.4,11.53-1.21,17.65,3.67,18.93,14.52,29.52,33.49,32.25,1.84,.27,2.16-.7,2.72-1.81,10.16-20.23,20.32-40.46,30.48-60.69,1.52-3.03,3.01-6.08,4.6-9.3Z"/><path class="b" d="M557.61,731.64c9.5-25.18,27.4-38.88,53.56-42.6-.55-.73-.87-1.22-1.26-1.65-16.62-18.85-33.25-37.7-49.86-56.56-.61-.69-1.29-1.2-2.13-1.57-6.55-2.88-12.91-6.14-19.1-9.73-.65-.38-1.28-.67-2.1-.51-5.38,1.02-10.83,10-9.2,15.26,8.83,28.6,17.67,57.19,26.51,85.79,1.12,3.64,2.25,7.28,3.58,11.58Z"/><path class="b" d="M421.16,824.88c24.08,16.71,49.98,26.46,79.12,26.39,28.88-.07,54.57-9.79,78.45-26.36-25.96-8.31-52.11-12.28-78.79-12.29-26.68,0-52.83,3.97-78.78,12.26Z"/><path class="b" d="M442.18,731.61c.31-.9,.43-1.24,.53-1.58,9.72-31.44,19.44-62.88,29.14-94.33,1.8-5.84-1.35-13.05-6.77-15.9-1.39-.73-2.51-.77-3.92,.07-6.16,3.65-12.55,6.86-19.13,9.69-1.27,.54-2.29,1.29-3.2,2.32-16.26,18.47-32.55,36.93-48.82,55.39-.42,.47-1.05,.85-1.02,1.8,25.82,3.67,43.76,17.4,53.18,42.53Z"/><path class="b" d="M347.53,728.14c9.71-11.02,19.31-22.15,29.21-33,3.07-3.36,4.47-6.49,3.88-11.24-1.81-14.47-4.62-28.66-9.8-42.32-.51-1.36-1.27-1.95-2.66-2.23-13.48-2.74-25.77-8.23-37.01-16.12-11.73-8.23-21.43-18.46-29.7-30.1-.53-.75-.85-1.78-2.09-1.77-4.21,.03-8.42,0-12.92,0,41.58,37.4,60.98,83.78,58.4,139.76,1.05-1.16,1.89-2.06,2.7-2.98Z"/><path class="b" d="M713.4,591.35c-3.88,0-7.5,.06-11.12-.03-1.35-.03-2.16,.42-2.93,1.53-3.08,4.49-6.48,8.75-10.13,12.79-15.8,17.48-34.84,29.45-58.18,34-1.17,.23-1.61,.82-1.97,1.79-5.78,15.15-8.91,30.87-10.15,47.01-.1,1.32,.32,2.24,1.16,3.19,5.06,5.68,10.07,11.4,15.1,17.11,6.51,7.38,13.02,14.75,19.81,22.45-2.61-56.05,16.81-102.42,58.41-139.83Z"/><path class="b" d="M526.63,491.67c1.64-10.14,3.21-20.3,4.82-30.45h0c.17-.17,.27-.35,.02-.51-.03-.02-.19,.16-.29,.24-.76,.45-1.54,.88-2.29,1.36-15.38,9.69-31.62,11.02-48.57,4.92-4.28-1.54-8.14-3.96-12.01-6.56-.03,.43-.09,.66-.05,.87,3.43,21.02,6.87,42.04,10.3,63.06,.21,1.31,.76,2.27,1.91,3.08,11.42,8.01,26.37,8.23,38.05,.6,1.79-1.17,2.59-2.58,2.92-4.63,1.68-10.67,3.49-21.31,5.21-31.97Z"/><path class="b" d="M574.79,157.62c-50.02-12.01-99.77-12.02-149.53,.34,23.93,9.96,48.83,14.74,74.66,14.79,23.7,.05,68.35-8.9,74.87-15.13Z"/><path class="b" d="M628.18,493.01c-13.5-7.36-20.01-19.22-21.74-34.11-.81-6.93-.45-13.83,.1-20.9-.33,.64-.67,1.28-1,1.92-7.89,15.69-15.67,31.44-23.72,47.05-4.08,7.91-5.64,16.24-5.37,25,.27,8.6,4.74,14.4,12.85,17.16,1.7,.58,2.93,.44,4.18-.89,1.12-1.19,2.45-2.17,3.66-3.28,10.62-9.69,21.95-18.6,31.45-29.49,1.12-1.28,1.01-1.69-.42-2.47Z"/><path class="b" d="M392.98,437.8s.02,.04,.04,.06c0-.03,0-.06,0-.09l-.03,.03Z"/><path class="b" d="M406.9,528.75c.72,.64,1.42,1,2.41,.7,6.76-2,11.61-5.89,13.3-13.08,.97-4.14,1.02-8.27,.36-12.43-.85-5.36-1.77-10.66-4.31-15.6-6.14-11.92-12.04-23.96-18.11-35.92-2.47-4.87-4.67-9.9-7.53-14.57,.23,6.29,1.04,12.54,.48,18.86-1.37,15.59-7.53,28.23-21.65,36.12-1.18,.66-1.17,1.04-.3,2.05,10.71,12.41,23.13,23.03,35.35,33.86Z"/><path class="b" d="M308.06,241.42c38.86-11.33,70.33-33.11,93.75-66.27,2.78-3.93,5.66-7.81,7.72-12.21-1.17-.33-2.12,.37-3.12,.73-34.26,12.35-63.3,32.22-86.65,60.27-4.67,5.61-9.07,11.43-13.09,17.54,.57,.33,.97,.07,1.39-.06Z"/><path class="b" d="M669.78,662.2c-8,21.41-11.19,43.55-9.62,66.39,23.82-41.57,41.2-85.79,55.11-132.16-20.91,18.46-35.95,40.22-45.49,65.77Z"/><path class="b" d="M285.24,597.04c1.04,16.8,41.93,115.37,54.67,131.71,1.34-23.54-2.04-46.02-10.33-67.75-9.5-24.88-24.27-46.13-44.34-63.97Z"/><path class="b" d="M464.51,468.73c-.88,.79-.96,1.72-1.27,2.53-3.12,7.99-7.92,14.65-15.19,19.37-5.4,3.51-11.37,5.48-17.68,6.49-1.07,.17-1.85,.22-1.1,1.7,6.99,13.82,13.93,27.66,20.86,41.51,.42,.84,.94,1.17,1.87,1.27,9.59,.98,16.81-3.02,21.16-11.67,.78-1.56,.94-3.04,.66-4.73-1.78-10.57-3.5-21.15-5.23-31.72-1.35-8.19-2.7-16.38-4.07-24.74Z"/><path class="b" d="M547.56,541.62c1.26-.09,1.8-.67,2.31-1.68,6.86-13.71,13.76-27.41,20.63-41.12,.2-.41,.71-.82,.27-1.47-17.37-2.41-29.48-11.47-35.26-28.83-.27,.99-.44,1.49-.53,2-3.01,18.36-6.02,36.72-9.03,55.08-.24,1.44-.05,2.74,.61,4.09,4.37,8.81,11.09,12.63,21.01,11.94Z"/><path class="b" d="M702.85,257.4c1.16,45.9,14.12,88.37,37.17,127.91-4.43-44.96-14.87-88.17-37.17-127.91Z"/><path class="b" d="M259.95,385.03c22.88-39.33,35.78-81.58,36.97-127.27-22.14,39.56-32.55,82.54-36.97,127.27Z"/><path class="b" d="M519.75,533.45c-13.34,7.19-26.34,7.2-39.47,.12,0,.52-.05,.88,0,1.21,2.19,13.37,4.4,26.73,6.54,40.1,.21,1.31,.81,1.52,1.93,1.51,7.45-.03,14.91-.04,22.36,.01,1.37,.01,1.71-.54,1.91-1.79,1.56-9.85,3.2-19.69,4.82-29.53,.62-3.77,1.23-7.55,1.9-11.64Z"/><path class="b" d="M587.66,818.31c26.53-21.32,46.78-47.36,64.58-75.89-30.18,11.2-57.17,40.61-64.58,75.89Z"/><path class="b" d="M348.15,742.53c15.42,26.95,51.53,69.21,64.23,75.37-9.35-35.65-30.65-60.75-64.23-75.37Z"/><path class="b" d="M623.98,641.05c-24.57-.12-20.1,2.49-54.64-7.02,14.99,17.01,29.83,33.83,44.96,50.99,1.51-15.39,4.53-29.87,9.68-43.97Z"/><path class="b" d="M383.29,668.99c.86,5.16,1.57,10.34,2.4,15.84,14.87-16.87,29.56-33.54,44.58-50.57-1.07,.31-1.64,.45-2.18,.63-14.04,4.66-28.41,7.07-43.24,6.59-2.95-.1-5.86-.82-8.83-.46,.04,.35,.03,.73,.14,1.06,3.21,8.76,5.61,17.73,7.13,26.93Z"/><path class="b" d="M376.01,641.01v-.03l-.02,.02,.02-.02-.16-.11s.08,.1,.12,.14h0s.03,0,.04,0Z"/><path class="b" d="M272.17,522.25c-2.5-12.28-4.01-24.69-4.61-37.22-.51-10.52-.3-21,.41-31.5,.28-4.11,1.37-8.22,.16-12.43-2.62-9.16-5.43-18.26-8.71-27.21-.34-.92-.76-1.81-1.36-3.22-.81,16.22-2.39,42.84,5.69,94.3,3.53,22.49,8.29,44.73,14.58,66.7,.32-5.26,.54-10.53,.97-15.78,.36-4.38-.3-8.52-1.74-12.69-2.36-6.83-3.98-13.88-5.41-20.96Z"/><path class="b" d="M741.95,410.47c-.41,.66-.56,.83-.64,1.03-3.66,9.53-6.73,19.25-9.46,29.07-.24,.87-.21,1.76-.13,2.66,.46,4.89,1.01,9.78,1.31,14.69,.86,14.32,.41,28.6-1.18,42.86-1.86,16.64-5.34,32.9-10.78,48.74-.34,.99-.66,1.96-.63,3.04,.15,6.61,.64,13.2,1.37,19.81,13.46-52.96,23.1-106.39,20.15-161.9Z"/><path class="b" d="M524.34,535.73c-2.33,14.07-4.58,27.64-6.82,41.21-.15,.89-.25,1.7,.63,2.41,2.79,2.23,5.51,4.53,8.43,6.95,6.71-13.38,13.27-26.45,19.94-39.74-9.37,.19-16.74-3.06-22.18-10.82Z"/><path class="b" d="M481.44,579.55c.87-.69,1.06-1.41,.88-2.51-1.8-10.72-3.52-21.45-5.29-32.17-.47-2.88-1-5.74-1.6-9.11-5.55,7.9-12.96,10.94-22.15,10.82,6.72,13.36,13.31,26.46,19.96,39.7,2.9-2.38,5.52-4.58,8.2-6.72Z"/><path class="b" d="M412.54,533.73c8.31,7.36,16.42,14.61,24.61,21.75,2.16,1.88,5.71,1.62,7.34-.24,2.14-2.44,3.01-9.37,1.52-12.34-5.5-10.97-11.01-21.94-16.53-32.9-.27-.54-.32-1.3-1.1-1.52-.3,13.1-4.35,20.31-15.84,25.24Z"/><path class="b" d="M563.54,554.77c2.01-1.78,4.02-3.56,6.03-5.34,5.85-5.19,11.7-10.39,17.8-15.81-11.97-4.43-16.15-13.45-16.08-25.19-5.6,10.81-10.82,21.61-16.43,32.2-1.99,3.76-2.09,7.36-1.14,11.19,1.29,5.23,5.75,6.53,9.82,2.95Z"/><path class="b" d="M488.57,581.12c-.94,0-1.71,.2-2.45,.82-2.85,2.4-5.71,4.77-8.62,7.09-.98,.78-.93,1.27,.04,2,3.15,2.37,6.27,4.79,9.35,7.25,.78,.62,1.59,.69,2.5,.69,3.57-.01,7.14,0,10.72,0,3.72,0,7.44-.02,11.16,.01,.93,0,1.73-.15,2.47-.77,2.85-2.39,5.72-4.77,8.62-7.09,.94-.75,1-1.23,.02-2.01-2.97-2.36-5.89-4.79-8.79-7.23-.68-.58-1.39-.74-2.24-.74-7.59,.02-15.18,.02-22.77,0Z"/><path class="b" d="M520.1,626.86c-2.35-7.61-4.58-14.84-6.78-22.07-.26-.84-.81-.94-1.53-.94-7.9,0-15.81,0-23.71,0-.68,0-1.28-.03-1.55,.87-2.2,7.24-4.45,14.47-6.82,22.15,13.65-6.02,26.85-6.01,40.41-.02Z"/><path class="b" d="M296.97,586.37c-5.04-8.08-9.17-16.21-13.09-24.61-.25,3.25-.49,6.5-.76,9.74-.36,4.37-.76,8.75-1.09,13.12-.05,.63-.51,1.71,.72,1.72,4.63,.06,9.26,.02,14.22,.02Z"/><path class="b" d="M717.39,580.23c-.46-5.57-.91-11.13-1.37-16.7-3.74,7.79-7.68,15.33-12.32,22.87,3.55,0,6.67,0,9.79,0q4.47-.02,4.02-4.39c-.06-.59-.07-1.19-.12-1.78Z"/><path class="b" d="M556.15,561.33c-4.21-1.47-6.09-4.53-7.27-8.63-4.51,8.99-8.83,17.6-13.15,26.21l.34,.24c6.63-5.88,13.25-11.76,20.09-17.83Z"/><path class="b" d="M463.69,578.78h0c.05,.18,.01,.53,.35,.19l-.32-.22c.11-.81-.41-1.41-.73-2.06-3.1-6.18-6.21-12.36-9.32-18.54-.86-1.71-1.73-3.41-2.74-5.4-1.13,4.08-3.1,7.1-7.2,8.6,3.81,3.39,7.37,6.62,11.02,9.77,2.97,2.57,5.68,5.44,8.95,7.65Z"/><path class="b" d="M270.49,431.77c.99-4.92,1.83-9.15,2.69-13.37,.13-.64,.55-1.27-.1-1.86-3.48-3.1-6.96-6.2-10.44-9.3,2.5,8.1,5.31,15.96,7.85,24.53Z"/><path class="b" d="M737.54,407.36s.03,0,.05,0l-.04-.03v.03Z"/><path class="b" d="M736.99,407.44c-3.08,2.7-6.13,5.45-9.23,8.13-.71,.61-.63,1.27-.47,2.01,.81,3.91,1.62,7.81,2.43,11.72,2.5-7.37,5.32-14.59,7.82-21.93-.2,.01-.43-.03-.55,.08Z"/><path class="b" d="M532.19,615.63c-4.36-2.89-8.55-5.66-13.14-8.7,1.8,5.85,3.48,11.29,5.32,17.27,2.01-3.75,4.35-6.56,7.82-8.57Z"/><path class="b" d="M475.45,624.15c1.73-5.62,3.32-10.79,5.07-16.46-4.41,2.89-8.3,5.45-12.5,8.21,3.4,2.02,5.5,4.82,7.43,8.25Z"/><path class="b" d="M392.71,437.36l.24,.31c0-.16,.09-.37-.24-.31Z"/><path class="b" d="M392.98,437.8l.03-.03-.07-.09s0,.09,.04,.12Z"/><path class="b" d="M590.27,162.99c.25,.53,.46,1.09,.76,1.59,22.83,37.28,55.1,62.49,96.76,75.68,1.74,.55,3.51,1,5.68,1.62-.7-1.09-1.12-1.78-1.58-2.45-21.23-30.81-48.73-54.14-82.89-69.51-6.04-2.71-12.11-5.38-18.51-7.15h0c-.14-.18-.3-.29-.47-.05-.01,.02,.16,.17,.25,.26Z"/><path class="b" d="M409.59,162.88l-.05,.04v.02s.02,0,.04,.01v-.08Z"/><path class="b" d="M409.63,162.66l-.03,.22,.21-.17-.18-.05Z"/><path class="b" d="M737.55,407.33l.04,.03v-.2c-.01,.06-.02,.12-.04,.18Z"/></g></svg>