<?xml version="1.0" encoding="UTF-8"?><svg id="a" xmlns="http://www.w3.org/2000/svg" viewBox="0 0 1000 1000"><defs><style>.c{fill:#494849;}</style></defs><g id="b"><path class="c" d="M361.53,193.6c-2.23,10.45-6.6,18.51-10.5,26.65-22.03,45.97-32.13,94.87-36.21,145.28-.48,5.98-.42,12.04-.18,18.05,.33,8.6,3.52,10.97,12.2,9.23,26.94-5.4,53.48-12.41,79.03-22.55,11.62-4.61,21.77-3.91,31.81,3.19,3.87,2.73,8.28,4.43,12.81,5.8,3.38,1.03,5.08,.54,4.01-3.63-1.96-7.7-11.11-16.31-19.05-16.57-22.79-.76-45.36,1.14-67.46,7.1-3.3,.89-6.14,.95-8.83-1.27-.6-.5-1.24-.96-1.87-1.43-18.66-14.1-18.04-8.06-12.15-33.64,10.09-43.79,25.64-85.58,45.39-125.86,2.27-4.62,5.04-8.99,8.43-14.96,.46,7.42-1.98,12.4-3.6,17.45-11.3,35.15-19.52,71-24.21,107.6-1.02,7.99-.17,16.2-.51,24.29-.23,5.37,2.4,7.32,7.3,8.11,14.69,2.37,29.24-.01,43.82-.98,6.76-.45,13.49-1.49,20.21-2.47,4.44-.65,7.49,1.06,9.92,4.66,3.53,5.22,7.65,9.9,12.43,14.08,4.29,3.75,7.54,3.78,10.75-1.3,2.78-4.39,6.17-8.29,12.48-9.37,.1,4.91-3.72,7.84-4.36,11.84-.33,2.07-1.11,4.52,.81,5.86,2.57,1.78,3.57-.89,4.66-2.53,2.49-3.73,4.32-3.5,6.78,.32,2.59,4.04,6.27,5.18,9.16,.22,2.6-4.46,4.77-4.03,7.41-.28,1.05,1.49,2.32,3.55,4.3,2.44,2.16-1.21,1.49-3.76,.82-5.69-1.27-3.64-2.84-7.18-4.56-11.45,6.81,.18,10.75,4.29,13.23,8.8,3.17,5.76,6.18,4.57,9.64,1.22,4.5-4.35,9.05-8.75,12.92-13.64,3.56-4.49,7.51-5.91,13-4.77,19.1,3.96,38.48,3.69,57.84,3.2,9-.23,10.93-2.37,10.74-11.6-.7-34.5-8.31-67.84-17.31-100.93-3.89-14.32-8-28.57-12.51-44.62,5.81,5.21,7.98,10.67,10.59,15.73,22.72,44.01,35.49,91.46,47.93,139.03,1.12,4.3,.4,7.68-3.38,10.29-1.93,1.33-3.7,2.92-5.5,4.43-6.75,5.68-12.73,8.46-23.01,5.48-19.01-5.51-39.29-4.77-59.11-5.65-9-.4-18.78,7.96-21.66,16.58-1.31,3.9,.03,4.88,3.63,3.97,5.4-1.37,10.32-3.96,14.82-7.05,9.08-6.23,18.44-6.62,28.32-2.56,23.78,9.77,49.01,14.63,73.56,21.81,16.68,4.88,20.63,2.09,19.64-15.44-2.82-49.89-10.99-98.65-32.37-144.47-5.24-11.23-10.21-22.65-14-35.28,4.22,1.53,5.44,4.61,7.22,7.08,28.7,39.65,45.42,84.5,57.01,131.56,4.18,16.98,7.85,34.09,12.17,51.03,1.59,6.21,.7,11.22-3.59,15.91-6.91,7.56-13.83,15.02-23.84,18.64-2.81,1.02-5.46,1.97-8.15-.01-20.77-15.29-45.34-20.91-69.59-27.3-16.7-4.4-33.58-5.1-50.45-1.22-5.11,1.18-12.96,1.97-12.53,8.09,.35,4.92,8.1,4.2,12.87,4.64,9.18,.84,18.31-.19,27.34-1.83,5.04-.91,9.25-.04,12.68,4.05,27.56,32.87,63.14,56.21,97.1,81.47,4.82,3.58,10.02,6.65,15.08,9.9,6.47,4.17,12.77,6.71,20.16,1.22,4.88-3.63,5.41,.64,5.58,4.33,.84,18.11-1.62,35.98-3.79,53.88-6.08,50.17-19.29,98.35-39.85,144.55-7.56,16.98-15.96,33.43-27.08,50.09,7.07-21.6,14.13-41.73,20.24-62.13,11.98-39.97,17.1-81.17,20.84-122.56,.75-8.32,1.09-16.68,1.61-25.03,.88-13.99-4.72-24.56-15.98-32.93-24.34-18.11-48.66-36.26-71.98-55.69-8.83-7.36-17.53-14.84-25.93-22.73-10.25-9.61-23.59-11.7-37-12.74-5.34-.41-6.19,2.85-3.13,6.25,10.32,11.48,20.75,23.32,36.23,27.67,7.74,2.17,10.55,5.73,10.59,13.59,.23,46.56,3.84,93.32-2.1,139.61-8.59,66.95-19.28,133.66-54.15,193.4-1.8,3.09-3.24,6.53-7.89,9.89,2.42-6.5,4.12-11.51,6.12-16.4,13.89-33.88,20.78-69.34,25.31-105.55,5.51-44.05,5.16-88.19,4.31-132.38-.36-18.82-1.65-37.62-2.75-56.42-.34-5.84-.13-11.68,1.67-17.07,2.11-6.32,.18-11.03-3.3-15.99-7.88-11.23-16.48-21.68-28.54-28.68-1.62-.94-3.58-3-5.6-1.07-1.62,1.54-.52,3.65,.53,5.02,13.11,17.09,8.2,36.01,4.82,54.31-5.52,29.87-14.24,58.89-26.67,86.69-1.6,3.57-3.41,7.07-5.43,10.42-1.56,2.58-3.19,6.15-6.29,.8-1.4-2.42-4.49-2.21-6.05-.04-5.16,7.17-6.92,.43-8.41-2.36-7.58-14.1-12.94-29.14-17.49-44.45-6.63-22.29-12.15-44.86-15.27-67.94-1.7-12.57-2.73-25.09,6.63-35.76,1.33-1.51,3.13-4.1,.86-6.34-2.38-2.34-4.54-.04-6.22,1.21-12.06,9-22.11,19.92-30.38,32.49-1.29,1.96-2.82,4.14-2.09,6.56,5.63,18.63,1.5,37.46,1.05,56.16-1.47,60.47-2.65,120.9,7.18,180.89,5.26,32.07,13.79,63.24,26.83,93.09,.59,1.34,1.9,2.64,.48,4.85-9.38-12.31-16.15-25.77-22.32-39.58-13.21-29.55-20.55-60.87-27.61-92.25-13-57.81-14.54-116.54-13.83-175.44,.16-13.08,.55-26.17,.58-39.25,.01-6.42,2.54-9.7,9.01-11.61,15.4-4.52,26.05-15.98,36.67-27.21,1.38-1.46,2.79-3.41,1.44-5.64-1.31-2.16-3.64-1.83-5.68-1.65-12.4,1.09-24.78,3.48-34.11,12.05-31.46,28.93-65.99,53.97-99.76,79.98-10.38,7.99-15.49,17.96-15.33,30.94,.38,29.91,4.99,59.34,9.41,88.83,5.99,39.99,17.36,78.45,31.62,116.15,.52,1.38,1.43,2.82-.03,4.93-9.04-12.28-14.8-26.02-20.77-39.57-18.25-41.45-34.03-83.72-40.69-128.84-3.44-23.27-7.09-46.52-7.99-70.07-.13-3.38,.15-6.8,.52-10.16,.39-3.53,2.23-5.8,5.66-3.08,7.93,6.28,14.89,2.26,21.68-1.78,14.2-8.43,27.02-18.85,40.18-28.75,19.03-14.3,37.47-29.36,55.21-45.24,4.48-4.01,8.82-8.19,12.02-13.39,3.87-6.28,9.36-8.44,16.73-7.32,8.77,1.33,17.6,3.02,26.54,2.04,3.35-.37,6.7-1.15,9.91-2.18,4.61-1.48,4.26-4.05,.77-6.54-5.95-4.26-13-5.08-19.99-6.09-26.94-3.89-51.7,4.88-76.43,13.39-11.63,4-22.87,9.09-32.99,16.26-2.72,1.93-5.22,1.78-8.1,.75-12.42-4.43-20.85-13.58-28.33-23.85-1.68-2.31-1.58-4.99-.96-7.56,11.34-46.73,21.24-93.92,41.6-137.9,8.81-19.03,19-37.29,32.36-53.6,.91-1.11,1.95-2.1,3.92-4.21Z"/></g></svg>